<svg width="532" height="243" viewBox="0 0 532 243" fill="none" xmlns="http://www.w3.org/2000/svg">
<g filter="url(#filter0_d_512_246)">
<rect x="23" y="27" width="485" height="189" rx="21" fill="#212121"/>
</g>
<path d="M460 194.8C450 194.8 445 190.133 445 180.8V149.8C445 143.4 443.667 138.6 441 135.4C438.467 132.067 434.067 130.4 427.8 130.4C421 130.4 415.933 131.8 412.6 134.6C409.4 137.4 407.8 142.267 407.8 149.2V179.2C407.8 189.6 403 194.8 393.4 194.8C383.8 194.8 379 189.6 379 179.2V66.6C379 56.2 383.8 51 393.4 51C403 51 407.8 56.2 407.8 66.6V113.6C409.667 111.733 411.6 110.267 413.6 109.2C415.6 108.133 418.933 106.933 423.6 105.6C430.267 103.733 434.867 99.8 437.4 93.8C439.933 87.8 441.2 78.2 441.2 65C441.2 60.0667 442.267 56.5333 444.4 54.4C446.533 52.1333 449.933 51 454.6 51C464.467 51 469.4 56 469.4 66C469.4 79.3333 468 90.2 465.2 98.6C462.4 106.867 458.067 113.267 452.2 117.8C466.467 123.933 473.6 134.733 473.6 150.2V180.8C473.6 190.133 469.067 194.8 460 194.8Z" fill="#F7D654"/>
<path d="M298.147 193C288.547 193 283.747 187.8 283.747 177.4V66.3998C283.747 55.9998 288.547 50.7998 298.147 50.7998C307.747 50.7998 312.547 55.9998 312.547 66.3998V155.2C312.547 157.333 312.347 160.066 311.947 163.4C311.68 166.6 311.347 169.266 310.947 171.4C314.414 167.266 318.68 165.2 323.747 165.2H353.147C358.08 165.2 361.88 166.4 364.547 168.8C367.214 171.2 368.547 174.666 368.547 179.2C368.547 188.4 363.414 193 353.147 193H298.147Z" fill="#F7D654"/>
<path d="M109.345 194.6C99.4788 194.6 94.5455 190.133 94.5455 181.2V141.4L52.9455 73.1998C50.5455 69.0665 49.6121 65.3331 50.1455 61.9998C50.8121 58.6665 52.3455 55.9998 54.7455 53.9998C57.2788 51.8665 60.1455 50.7998 63.3455 50.7998C67.7455 50.7998 71.2121 52.1331 73.7455 54.7998C76.4121 57.4665 79.4121 61.9998 82.7455 68.3998L109.945 117.4C115.279 112.466 119.479 108.333 122.545 105C125.612 101.533 127.812 98.2665 129.145 95.1998C130.479 92.1331 131.145 88.7331 131.145 84.9998C131.145 81.2665 130.745 77.1331 129.945 72.5998C129.145 68.0665 128.745 64.7331 128.745 62.5998C128.745 59.2665 130.145 56.4665 132.945 54.1998C135.745 51.9331 139.145 50.7998 143.145 50.7998C147.945 50.7998 151.612 53.1998 154.145 57.9998C156.812 62.6665 158.145 69.5331 158.145 78.5998C158.145 86.0665 157.145 93.0665 155.145 99.5998C153.279 106.133 149.812 112.733 144.745 119.4C139.812 126.066 132.679 133.333 123.345 141.2V181.2C123.345 185.733 122.212 189.133 119.945 191.4C117.812 193.533 114.279 194.6 109.345 194.6Z" fill="#F7D654"/>
<mask id="mask0_512_246" style="mask-type:alpha" maskUnits="userSpaceOnUse" x="157" y="41" width="117" height="154">
<path d="M273.746 139.124C273.746 169.983 247.981 195 216.199 195C184.416 195 157.746 169.983 157.746 139.124C157.746 90.5162 184.416 41 216.199 41C247.981 41 273.746 90.5162 273.746 139.124Z" fill="#AEA895"/>
</mask>
<g mask="url(#mask0_512_246)">
<path d="M168.746 100L161.746 104L145.246 200.5L286.746 213.5L278.246 100.5L269.746 98.5H265.746L259.746 101.5L253.246 97.5L248.246 104L242.246 103.5L236.246 117L234.746 109.5L223.746 118.5H214.746L199.746 112.5L195.246 109L186.246 102.5L181.746 96.5L174.246 102L168.746 100Z" fill="#A7A092"/>
</g>
<ellipse cx="212.819" cy="141.881" rx="53.5" ry="42.5" transform="rotate(6.66861 212.819 141.881)" fill="#E3C656"/>
<circle cx="219.09" cy="88.246" r="42.5" transform="rotate(6.66861 219.09 88.246)" fill="#F7D755"/>
<mask id="mask1_512_246" style="mask-type:alpha" maskUnits="userSpaceOnUse" x="176" y="45" width="86" height="86">
<circle cx="219.09" cy="88.246" r="42.5" transform="rotate(6.66861 219.09 88.246)" fill="#F7D755"/>
</mask>
<g mask="url(#mask1_512_246)">
<path d="M263.377 76.2983L256.389 74.2066L250.467 75.5625L247.346 68.7855L240.462 71.5559L237.411 68.0201L230.998 69.5971L223.413 62.7847L218.482 64.1026L214.96 61.7162L209.515 62.2469L207.008 60.0705L199.558 59.5764L196.514 57.2178L190.517 55.0886C197.836 49.5041 214.878 42.0776 234.523 49.0302C254.168 55.9828 263.377 76.2983 263.377 76.2983Z" fill="black" fill-opacity="0.05"/>
</g>
<circle cx="201.354" cy="80.6351" r="9" transform="rotate(6.66861 201.354 80.6351)" fill="#171414"/>
<circle cx="201.354" cy="80.6351" r="9" transform="rotate(6.66861 201.354 80.6351)" fill="#171414"/>
<circle cx="239.097" cy="85.0477" r="9" transform="rotate(6.66861 239.097 85.0477)" fill="#171414"/>
<circle cx="239.097" cy="85.0477" r="9" transform="rotate(6.66861 239.097 85.0477)" fill="#171414"/>
<circle cx="199.6" cy="78.416" r="4" transform="rotate(6.66861 199.6 78.416)" fill="white"/>
<circle cx="237.342" cy="82.829" r="4" transform="rotate(6.66861 237.342 82.829)" fill="white"/>
<path d="M165.746 95.9998C163.346 97.5998 165.746 108 167.246 113C171.412 113.5 179.646 113.7 179.246 110.5C178.746 106.5 168.746 93.9998 165.746 95.9998Z" fill="#F7D654"/>
<mask id="mask2_512_246" style="mask-type:alpha" maskUnits="userSpaceOnUse" x="157" y="41" width="117" height="154">
<path d="M273.746 139.124C273.746 169.983 247.981 195 216.199 195C184.416 195 157.746 169.983 157.746 139.124C157.746 90.5162 184.416 41 216.199 41C247.981 41 273.746 90.5162 273.746 139.124Z" fill="#AEA895"/>
</mask>
<g mask="url(#mask2_512_246)">
<path d="M165.746 108L157.746 98.5L145.246 200.5L286.746 213.5L278.246 100.5L269.746 98.5H265.746L263.246 108L258.246 106.5H250.246L244.246 112.5L236.246 117L234.746 109.5L223.746 118.5H214.746L199.746 112.5L193.746 117L188.246 106.5L183.246 109.5L173.246 106.5L165.746 108Z" fill="#D9D3CA"/>
</g>
<path d="M225.837 99.421C220.409 95.075 217.019 94.5422 210.442 97.6211C210.506 104.658 212.272 107.723 216.762 112.455C222.571 107.912 224.668 105.141 225.837 99.421Z" fill="#FD8041"/>
<path d="M261.43 72.2708L254.758 70.2911L249.059 71.7258L246.163 65.0287L239.521 67.8845L236.646 64.4111L230.472 66.0728L223.296 59.4051L218.548 60.7877L215.205 58.4646L209.975 59.0713L207.602 56.9424L200.464 56.5587L197.579 54.2563L191.858 52.2248C198.958 46.563 215.411 38.9277 234.151 45.5603C252.892 52.1928 261.43 72.2708 261.43 72.2708Z" fill="#D9D3CA"/>
<defs>
<filter id="filter0_d_512_246" x="16.7" y="21.7" width="497.6" height="201.6" filterUnits="userSpaceOnUse" color-interpolation-filters="sRGB">
<feFlood flood-opacity="0" result="BackgroundImageFix"/>
<feColorMatrix in="SourceAlpha" type="matrix" values="0 0 0 0 0 0 0 0 0 0 0 0 0 0 0 0 0 0 127 0" result="hardAlpha"/>
<feMorphology radius="1" operator="dilate" in="SourceAlpha" result="effect1_dropShadow_512_246"/>
<feOffset dy="1"/>
<feGaussianBlur stdDeviation="2.65"/>
<feComposite in2="hardAlpha" operator="out"/>
<feColorMatrix type="matrix" values="0 0 0 0 0 0 0 0 0 0 0 0 0 0 0 0 0 0 0.25 0"/>
<feBlend mode="normal" in2="BackgroundImageFix" result="effect1_dropShadow_512_246"/>
<feBlend mode="normal" in="SourceGraphic" in2="effect1_dropShadow_512_246" result="shape"/>
</filter>
</defs>
</svg>
