<svg width="499" height="203" viewBox="0 0 499 203" fill="none" xmlns="http://www.w3.org/2000/svg">
<g filter="url(#filter0_d_512_246)">
<rect x="7" y="6" width="485" height="189" rx="21" fill="#212121"/>
</g>
<path d="M444 173.8C434 173.8 429 169.133 429 159.8V128.8C429 122.4 427.667 117.6 425 114.4C422.467 111.067 418.067 109.4 411.8 109.4C405 109.4 399.933 110.8 396.6 113.6C393.4 116.4 391.8 121.267 391.8 128.2V158.2C391.8 168.6 387 173.8 377.4 173.8C367.8 173.8 363 168.6 363 158.2V45.6C363 35.2 367.8 30 377.4 30C387 30 391.8 35.2 391.8 45.6V92.6C393.667 90.7333 395.6 89.2667 397.6 88.2C399.6 87.1333 402.933 85.9333 407.6 84.6C414.267 82.7333 418.867 78.8 421.4 72.8C423.933 66.8 425.2 57.2 425.2 44C425.2 39.0667 426.267 35.5333 428.4 33.4C430.533 31.1333 433.933 30 438.6 30C448.467 30 453.4 35 453.4 45C453.4 58.3333 452 69.2 449.2 77.6C446.4 85.8667 442.067 92.2667 436.2 96.8C450.467 102.933 457.6 113.733 457.6 129.2V159.8C457.6 169.133 453.067 173.8 444 173.8Z" fill="#F7D654"/>
<path d="M282.147 172C272.547 172 267.747 166.8 267.747 156.4V45.3998C267.747 34.9998 272.547 29.7998 282.147 29.7998C291.747 29.7998 296.547 34.9998 296.547 45.3998V134.2C296.547 136.333 296.347 139.066 295.947 142.4C295.68 145.6 295.347 148.266 294.947 150.4C298.414 146.266 302.68 144.2 307.747 144.2H337.147C342.08 144.2 345.88 145.4 348.547 147.8C351.214 150.2 352.547 153.666 352.547 158.2C352.547 167.4 347.414 172 337.147 172H282.147Z" fill="#F7D654"/>
<path d="M93.3455 173.6C83.4788 173.6 78.5455 169.133 78.5455 160.2V120.4L36.9455 52.1998C34.5455 48.0665 33.6121 44.3331 34.1455 40.9998C34.8121 37.6665 36.3455 34.9998 38.7455 32.9998C41.2788 30.8665 44.1455 29.7998 47.3455 29.7998C51.7455 29.7998 55.2121 31.1331 57.7455 33.7998C60.4121 36.4665 63.4121 40.9998 66.7455 47.3998L93.9455 96.3998C99.2788 91.4665 103.479 87.3331 106.545 83.9998C109.612 80.5331 111.812 77.2665 113.145 74.1998C114.479 71.1331 115.145 67.7331 115.145 63.9998C115.145 60.2665 114.745 56.1331 113.945 51.5998C113.145 47.0665 112.745 43.7331 112.745 41.5998C112.745 38.2665 114.145 35.4665 116.945 33.1998C119.745 30.9331 123.145 29.7998 127.145 29.7998C131.945 29.7998 135.612 32.1998 138.145 36.9998C140.812 41.6665 142.145 48.5331 142.145 57.5998C142.145 65.0665 141.145 72.0665 139.145 78.5998C137.279 85.1331 133.812 91.7331 128.745 98.3998C123.812 105.066 116.679 112.333 107.345 120.2V160.2C107.345 164.733 106.212 168.133 103.945 170.4C101.812 172.533 98.2788 173.6 93.3455 173.6Z" fill="#F7D654"/>
<mask id="mask0_512_246" style="mask-type:alpha" maskUnits="userSpaceOnUse" x="141" y="20" width="117" height="154">
<path d="M257.746 118.124C257.746 148.983 231.981 174 200.199 174C168.416 174 141.746 148.983 141.746 118.124C141.746 69.5162 168.416 20 200.199 20C231.981 20 257.746 69.5162 257.746 118.124Z" fill="#AEA895"/>
</mask>
<g mask="url(#mask0_512_246)">
<path d="M152.746 79L145.746 83L129.246 179.5L270.746 192.5L262.246 79.5L253.746 77.5H249.746L243.746 80.5L237.246 76.5L232.246 83L226.246 82.5L220.246 96L218.746 88.5L207.746 97.5H198.746L183.746 91.5L179.246 88L170.246 81.5L165.746 75.5L158.246 81L152.746 79Z" fill="#A7A092"/>
</g>
<ellipse cx="196.819" cy="120.881" rx="53.5" ry="42.5" transform="rotate(6.66861 196.819 120.881)" fill="#E3C656"/>
<circle cx="203.09" cy="67.246" r="42.5" transform="rotate(6.66861 203.09 67.246)" fill="#F7D755"/>
<mask id="mask1_512_246" style="mask-type:alpha" maskUnits="userSpaceOnUse" x="160" y="24" width="86" height="86">
<circle cx="203.09" cy="67.246" r="42.5" transform="rotate(6.66861 203.09 67.246)" fill="#F7D755"/>
</mask>
<g mask="url(#mask1_512_246)">
<path d="M247.377 55.2983L240.389 53.2066L234.467 54.5626L231.346 47.7855L224.462 50.5559L221.411 47.0201L214.998 48.5971L207.413 41.7846L202.482 43.1026L198.96 40.7162L193.515 41.2469L191.008 39.0705L183.558 38.5764L180.514 36.2178L174.517 34.0886C181.836 28.5041 198.878 21.0776 218.523 28.0302C238.168 34.9828 247.377 55.2983 247.377 55.2983Z" fill="black" fill-opacity="0.05"/>
</g>
<circle cx="185.354" cy="59.6351" r="9" transform="rotate(6.66861 185.354 59.6351)" fill="#171414"/>
<circle cx="185.354" cy="59.6351" r="9" transform="rotate(6.66861 185.354 59.6351)" fill="#171414"/>
<circle cx="223.097" cy="64.0477" r="9" transform="rotate(6.66861 223.097 64.0477)" fill="#171414"/>
<circle cx="223.097" cy="64.0477" r="9" transform="rotate(6.66861 223.097 64.0477)" fill="#171414"/>
<circle cx="183.6" cy="57.416" r="4" transform="rotate(6.66861 183.6 57.416)" fill="white"/>
<circle cx="221.342" cy="61.829" r="4" transform="rotate(6.66861 221.342 61.829)" fill="white"/>
<path d="M149.746 74.9998C147.346 76.5998 149.746 86.9998 151.246 91.9998C155.412 92.4998 163.646 92.6998 163.246 89.4998C162.746 85.4998 152.746 72.9998 149.746 74.9998Z" fill="#F7D654"/>
<mask id="mask2_512_246" style="mask-type:alpha" maskUnits="userSpaceOnUse" x="141" y="20" width="117" height="154">
<path d="M257.746 118.124C257.746 148.983 231.981 174 200.199 174C168.416 174 141.746 148.983 141.746 118.124C141.746 69.5162 168.416 20 200.199 20C231.981 20 257.746 69.5162 257.746 118.124Z" fill="#AEA895"/>
</mask>
<g mask="url(#mask2_512_246)">
<path d="M149.746 87L141.746 77.5L129.246 179.5L270.746 192.5L262.246 79.5L253.746 77.5H249.746L247.246 87L242.246 85.5H234.246L228.246 91.5L220.246 96L218.746 88.5L207.746 97.5H198.746L183.746 91.5L177.746 96L172.246 85.5L167.246 88.5L157.246 85.5L149.746 87Z" fill="#D9D3CA"/>
</g>
<path d="M209.837 78.421C204.409 74.075 201.019 73.5422 194.442 76.6211C194.506 83.6584 196.272 86.7229 200.762 91.4554C206.571 86.9117 208.668 84.141 209.837 78.421Z" fill="#FD8041"/>
<path d="M245.43 51.2708L238.758 49.2911L233.059 50.7258L230.163 44.0287L223.521 46.8845L220.646 43.4111L214.472 45.0728L207.296 38.4051L202.548 39.7877L199.205 37.4646L193.975 38.0713L191.602 35.9424L184.464 35.5587L181.579 33.2563L175.858 31.2248C182.958 25.563 199.411 17.9277 218.151 24.5603C236.892 31.1928 245.43 51.2708 245.43 51.2708Z" fill="#D9D3CA"/>
<defs>
<filter id="filter0_d_512_246" x="0.7" y="0.7" width="497.6" height="201.6" filterUnits="userSpaceOnUse" color-interpolation-filters="sRGB">
<feFlood flood-opacity="0" result="BackgroundImageFix"/>
<feColorMatrix in="SourceAlpha" type="matrix" values="0 0 0 0 0 0 0 0 0 0 0 0 0 0 0 0 0 0 127 0" result="hardAlpha"/>
<feMorphology radius="1" operator="dilate" in="SourceAlpha" result="effect1_dropShadow_512_246"/>
<feOffset dy="1"/>
<feGaussianBlur stdDeviation="2.65"/>
<feComposite in2="hardAlpha" operator="out"/>
<feColorMatrix type="matrix" values="0 0 0 0 0 0 0 0 0 0 0 0 0 0 0 0 0 0 0.25 0"/>
<feBlend mode="normal" in2="BackgroundImageFix" result="effect1_dropShadow_512_246"/>
<feBlend mode="normal" in="SourceGraphic" in2="effect1_dropShadow_512_246" result="shape"/>
</filter>
</defs>
</svg>
